<svg xmlns="http://www.w3.org/2000/svg" width="24" height="27" viewBox="0 0 24 27" fill="none">
<g clip-path="url(#clip0_11_3527)">
<path d="M1.2917 0.5H4.96228C5.16621 0.5 5.37013 0.635948 5.4381 0.839869L6.59366 5.32614H23.3832C23.859 5.32614 24.1309 5.80196 23.927 6.2098L20.5283 13.415C20.4603 13.6869 20.1884 13.8229 19.9165 13.8229H7.68124C6.45771 13.9588 6.66163 16.066 7.47732 16.202H19.8486C20.5963 16.202 20.5963 17.4255 19.8486 17.4255H18.8969C19.2368 17.8333 19.3727 18.3771 19.3727 18.9209C19.3727 20.2124 18.3531 21.3 16.9937 21.3C15.7022 21.3 14.6146 20.2124 14.6146 18.9209C14.6146 18.3771 14.8185 17.8333 15.1584 17.4255H11.0799C11.4198 17.8333 11.6237 18.3771 11.6237 18.9209C11.6237 20.2124 10.5361 21.3 9.24464 21.3C7.88516 21.3 6.86555 20.2124 6.86555 18.9209C6.86555 18.3771 7.0015 17.8333 7.34137 17.4255C5.30215 17.2895 4.82634 13.2791 7.20542 12.6673L4.41849 1.72353H1.2917C0.47601 1.72353 0.47601 0.5 1.2917 0.5ZM9.24464 17.6974C8.5649 17.6974 8.02111 18.2412 8.02111 18.9209C8.02111 19.6007 8.5649 20.0765 9.24464 20.0765C9.8564 20.0765 10.4002 19.6007 10.4002 18.9209C10.4002 18.2412 9.8564 17.6974 9.24464 17.6974ZM16.9937 17.6974C16.3139 17.6974 15.8381 18.2412 15.8381 18.9209C15.8381 19.6007 16.3139 20.0765 16.9937 20.0765C17.6734 20.0765 18.2172 19.6007 18.2172 18.9209C18.2172 18.2412 17.6734 17.6974 16.9937 17.6974ZM6.86555 6.54967L8.42895 12.5993H19.6446L22.4995 6.54967H6.86555Z" fill="black"/>
<path fill-rule="evenodd" clip-rule="evenodd" d="M11.0119 7.50122H17.2655C18.0812 7.50122 18.0812 8.65678 17.2655 8.65678H11.0119C10.1962 8.65678 10.1962 7.50122 11.0119 7.50122Z" fill="black"/>
<path fill-rule="evenodd" clip-rule="evenodd" d="M11.0119 10.4241H17.2655C18.0812 10.4241 18.0812 11.5796 17.2655 11.5796H11.0119C10.1962 11.5796 10.1962 10.4241 11.0119 10.4241Z" fill="black"/>
</g>
<defs>
<clipPath id="clip0_11_3527">
<rect width="23.315" height="26" fill="white" transform="translate(0.679932 0.5)"/>
</clipPath>
</defs>
</svg>