<svg width="98" height="94" viewBox="0 0 98 94" fill="none" xmlns="http://www.w3.org/2000/svg">
<g id="logo_mob (1) 1">
<g id="Group">
<path id="Vector" fill-rule="evenodd" clip-rule="evenodd" d="M1.34546 46.2438C1.34546 20.8107 22.5645 0.200195 48.7346 0.200195C74.9149 0.200195 96.1237 20.8107 96.1237 46.2479C96.1237 71.6831 74.9149 92.3079 48.7346 92.3079C22.5645 92.3038 1.3475 71.679 1.3475 46.2438" fill="#EA2427"/>
<path id="Vector_2" fill-rule="evenodd" clip-rule="evenodd" d="M26.3579 36.9257C26.3579 35.2643 25.7596 33.8441 24.5673 32.6753C23.3934 31.4859 21.9642 30.8954 20.2471 30.8954H14.1569V36.9236C14.1569 38.583 14.7326 40.0134 15.9066 41.2211C16.4709 41.7978 17.147 42.2532 17.8934 42.5593C18.6397 42.8653 19.4407 43.0156 20.2471 43.0009C21.9642 43.0009 23.3934 42.4124 24.5673 41.2231C25.7596 40.0134 26.3558 38.583 26.3558 36.9236M14.1283 26.1157V26.8963H20.2492C23.1279 26.8963 25.5984 27.8772 27.6441 29.8348C29.7123 31.7863 30.7515 34.1445 30.7515 36.9257C30.7515 39.7048 29.7103 42.0814 27.6441 44.0615C25.5739 46.011 23.1157 47 20.2471 47C17.3888 47 14.9286 46.011 12.8624 44.0615C10.8044 42.0814 9.78564 39.7028 9.78564 36.9236V21.8979C10.9698 21.8979 11.9968 22.3189 12.8298 23.1567C13.6954 23.968 14.1283 24.9673 14.1283 26.1157ZM48.3364 42.9151V36.8869C48.3364 35.2276 47.7402 33.8073 46.5459 32.618C45.3739 31.4083 43.9448 30.8096 42.2379 30.8096C40.5291 30.8096 39.0795 31.4083 37.8953 32.618C37.3285 33.1736 36.8804 33.8387 36.5783 34.5728C36.2761 35.307 36.1261 36.095 36.1374 36.8889C36.1374 38.538 36.7234 39.9664 37.8953 41.1557C39.0795 42.3246 40.5291 42.9151 42.2359 42.9151H48.3364ZM52.726 36.8869V46.9142H42.2359C39.3776 46.9142 36.9071 45.9333 34.841 43.9961C32.7932 42.0344 31.7662 39.668 31.7662 36.8869C31.7662 34.1077 32.7932 31.7291 34.841 29.7796C36.9092 27.8016 39.3776 26.8105 42.2359 26.8105C45.0942 26.8105 47.5544 27.8016 49.6226 29.7796C51.699 31.7291 52.726 34.1077 52.726 36.8869ZM52.728 68.8836H48.3874V49.0905C49.5818 49.0905 50.5884 49.5115 51.4438 50.3493C52.2972 51.1687 52.728 52.1598 52.728 53.3185V57.0478H58.4774C59.2818 57.0606 60.0801 56.9064 60.822 56.5947C61.5638 56.2831 62.233 55.8209 62.7873 55.2373C63.9817 54.0378 64.1961 53.5085 64.4962 52.1803C64.4962 52.1803 64.6901 49.0905 68.9184 49.0905V50.9705C68.9184 52.5787 68.5366 54.0991 67.7751 55.5173C67.0361 56.9272 65.9757 58.1432 64.6799 59.0668C65.9807 59.9897 67.0425 61.2101 67.7771 62.6265C68.5299 64.0064 68.9225 65.5541 68.9184 67.1263V68.8836H64.5697V67.1263C64.5697 65.4853 63.9817 64.0549 62.7873 62.8554C62.2331 62.2724 61.5641 61.8107 60.8226 61.4995C60.0812 61.1882 59.2833 61.0341 58.4794 61.0469H52.728V68.8836ZM87.0729 59.1179C87.0729 60.7567 86.4768 62.1872 85.2824 63.3867C84.0982 64.5944 82.6589 65.046 80.9745 65.046C79.2656 65.046 77.816 64.6046 76.6319 63.4153C75.4395 62.2056 74.8434 60.7772 74.8434 59.1179V53.3185C74.8434 52.1598 74.4207 51.1687 73.5571 50.3493C73.1605 49.9423 72.685 49.6207 72.1598 49.4042C71.6346 49.1878 71.0707 49.081 70.5028 49.0905V59.1179C70.5028 61.897 71.5297 64.2756 73.5857 66.2537C75.6335 68.2154 78.0937 69.1943 80.9724 69.1943C83.8308 69.1943 86.291 68.2134 88.3367 66.2537C90.3947 64.2756 91.4135 61.895 91.4135 59.1179V49.0905C90.8426 49.0836 90.2761 49.1915 89.7476 49.4077C89.2191 49.6239 88.7394 49.9441 88.3367 50.3493C87.9305 50.7284 87.608 51.1885 87.39 51.6998C87.172 52.2112 87.0633 52.7626 87.0709 53.3185L87.0729 59.1179Z" fill="#F7FAFB"/>
</g>
</g>
</svg>
