<svg width="20" height="20" viewBox="0 0 20 20" fill="none" xmlns="http://www.w3.org/2000/svg">
<g id="Youtube">
<path id="rect4" d="M20 10C20 4.47715 15.5228 0 10 0C4.47715 0 0 4.47715 0 10C0 15.5228 4.47715 20 10 20C15.5228 20 20 15.5228 20 10Z" fill="#FF0000"/>
<g id="g4167">
<path id="path4156" d="M9.99585 5.28149C9.99585 5.28149 5.78126 5.2815 4.72345 5.55636C4.15707 5.71462 3.69069 6.181 3.53244 6.75571C3.25757 7.81352 3.25757 10.0042 3.25757 10.0042C3.25757 10.0042 3.25757 12.2031 3.53244 13.2443C3.69069 13.819 4.14874 14.277 4.72345 14.4353C5.78959 14.7185 9.99585 14.7185 9.99585 14.7185C9.99585 14.7185 14.2188 14.7185 15.2766 14.4436C15.8513 14.2853 16.3093 13.8356 16.4593 13.2526C16.7425 12.2031 16.7425 10.0125 16.7425 10.0125C16.7425 10.0125 16.7508 7.81352 16.4593 6.75571C16.3093 6.181 15.8513 5.72296 15.2766 5.57303C14.2188 5.28151 9.99585 5.28149 9.99585 5.28149ZM8.65483 7.98019L12.1615 10.0042L8.65483 12.0198V7.98019Z" fill="white"/>
</g>
</g>
</svg>
